# xmcd
# Track frame offsets:
# 150
# 9884
# 27864
# 43143
# 59517
# 71189
# 79784
# 92602
# 105771
# 130190
# 140506
# 149781
#
# Disc length: 2195 seconds
# Revision: 0
# Processed by: cddbd v1.5.2PL0 Copyright (c) Steve Scherf et al.
# Submitted via: VisiTrax 2.10.2.252 - For more info visit www.synapsa.com
#
DISCID=a308910c
DTITLE=Bad Sign - Too Late
DYEAR=2008
DGENRE=Blues
TTITLE0=My worried mind
TTITLE1=Struggle and Trouble
TTITLE2=Booogie my way
TTITLE3=Sunny days
TTITLE4=Crazy abuot you baby
TTITLE5=You know what I mean
TTITLE6=Funky little chic
TTITLE7=Now I see
TTITLE8=Blues guitar
TTITLE9=Too late
TTITLE10=Barbeque
TTITLE11=I´m leavin
EXTD=
EXTT0=
EXTT1=
EXTT2=
EXTT3=
EXTT4=
EXTT5=
EXTT6=
EXTT7=
EXTT8=
EXTT9=
EXTT10=
EXTT11=
PLAYORDER=
